<mxfile host="65bd71144e">
    <diagram id="D-wrhAHNh7GYTq9ITsSw" name="Page-1">
        <mxGraphModel dx="1902" dy="1190" grid="1" gridSize="10" guides="1" tooltips="1" connect="1" arrows="1" fold="1" page="1" pageScale="1" pageWidth="10000" pageHeight="10000" background="none" math="0" shadow="0">
            <root>
                <mxCell id="0"/>
                <mxCell id="1" parent="0"/>
                <mxCell id="108" value="Meeting Aggregate" style="swimlane;" parent="1" vertex="1">
                    <mxGeometry x="5830" y="1470" width="430" height="220" as="geometry"/>
                </mxCell>
                <mxCell id="109" value="«entity»&lt;br&gt;«root»&lt;br&gt;Meeting" style="html=1;" parent="108" vertex="1">
                    <mxGeometry x="225" y="140" width="100" height="50" as="geometry"/>
                </mxCell>
                <mxCell id="110" value="«value object»&lt;br&gt;MeetingDuration" style="html=1;" parent="108" vertex="1">
                    <mxGeometry x="30" y="50" width="100" height="50" as="geometry"/>
                </mxCell>
                <mxCell id="111" value="«value object»&lt;br&gt;MeetingDate" style="html=1;" parent="108" vertex="1">
                    <mxGeometry x="160" y="50" width="100" height="50" as="geometry"/>
                </mxCell>
                <mxCell id="112" value="«enum»&lt;br&gt;MeetingStatus" style="html=1;" parent="108" vertex="1">
                    <mxGeometry x="290" y="50" width="100" height="50" as="geometry"/>
                </mxCell>
                <mxCell id="124" value="" style="endArrow=diamondThin;endFill=1;endSize=24;html=1;entryX=0.25;entryY=0;entryDx=0;entryDy=0;exitX=0.5;exitY=1;exitDx=0;exitDy=0;" parent="108" source="111" target="109" edge="1">
                    <mxGeometry width="160" relative="1" as="geometry">
                        <mxPoint x="350" y="110" as="sourcePoint"/>
                        <mxPoint x="310" y="140" as="targetPoint"/>
                    </mxGeometry>
                </mxCell>
                <mxCell id="125" value="" style="endArrow=diamondThin;endFill=1;endSize=24;html=1;exitX=1;exitY=1;exitDx=0;exitDy=0;entryX=0;entryY=0;entryDx=0;entryDy=0;" parent="108" source="110" target="109" edge="1">
                    <mxGeometry width="160" relative="1" as="geometry">
                        <mxPoint x="220" y="110" as="sourcePoint"/>
                        <mxPoint x="190" y="130" as="targetPoint"/>
                    </mxGeometry>
                </mxCell>
                <mxCell id="173" value="" style="endArrow=open;endFill=1;endSize=12;html=1;exitX=0.75;exitY=0;exitDx=0;exitDy=0;entryX=0.5;entryY=1;entryDx=0;entryDy=0;" parent="108" source="109" target="112" edge="1">
                    <mxGeometry width="160" relative="1" as="geometry">
                        <mxPoint x="479.9999999999991" y="110" as="sourcePoint"/>
                        <mxPoint x="479.9999999999991" y="150" as="targetPoint"/>
                    </mxGeometry>
                </mxCell>
                <mxCell id="2" value="User Aggregate" style="swimlane;" parent="1" vertex="1">
                    <mxGeometry x="4480" y="1470" width="1150" height="280" as="geometry"/>
                </mxCell>
                <mxCell id="5" value="«entity»&lt;br&gt;«root»&lt;br&gt;User" style="html=1;" parent="2" vertex="1">
                    <mxGeometry x="520" y="160" width="100" height="50" as="geometry"/>
                </mxCell>
                <mxCell id="6" value="«value object»&lt;br&gt;UserEmail" style="html=1;" parent="2" vertex="1">
                    <mxGeometry x="30" y="50" width="100" height="50" as="geometry"/>
                </mxCell>
                <mxCell id="7" value="«value object»&lt;br&gt;UserPassword" style="html=1;" parent="2" vertex="1">
                    <mxGeometry x="160" y="50" width="100" height="50" as="geometry"/>
                </mxCell>
                <mxCell id="8" value="«value object»&lt;br&gt;UserName" style="html=1;" parent="2" vertex="1">
                    <mxGeometry x="290" y="50" width="100" height="50" as="geometry"/>
                </mxCell>
                <mxCell id="9" value="«enum»&lt;br&gt;UserState" style="html=1;" parent="2" vertex="1">
                    <mxGeometry x="420" y="50" width="100" height="50" as="geometry"/>
                </mxCell>
                <mxCell id="169" value="" style="endArrow=diamondThin;endFill=1;endSize=24;html=1;entryX=0;entryY=0.5;entryDx=0;entryDy=0;exitX=1;exitY=1;exitDx=0;exitDy=0;" parent="2" source="6" target="5" edge="1">
                    <mxGeometry width="160" relative="1" as="geometry">
                        <mxPoint x="430" y="110" as="sourcePoint"/>
                        <mxPoint x="335" y="150" as="targetPoint"/>
                        <Array as="points">
                            <mxPoint x="230" y="140"/>
                            <mxPoint x="440" y="160"/>
                        </Array>
                    </mxGeometry>
                </mxCell>
                <mxCell id="170" value="" style="endArrow=diamondThin;endFill=1;endSize=24;html=1;entryX=0;entryY=0;entryDx=0;entryDy=0;exitX=0.5;exitY=1;exitDx=0;exitDy=0;" parent="2" source="7" target="5" edge="1">
                    <mxGeometry width="160" relative="1" as="geometry">
                        <mxPoint x="140" y="110" as="sourcePoint"/>
                        <mxPoint x="235" y="150" as="targetPoint"/>
                        <Array as="points">
                            <mxPoint x="280" y="110"/>
                        </Array>
                    </mxGeometry>
                </mxCell>
                <mxCell id="171" value="" style="endArrow=diamondThin;endFill=1;endSize=24;html=1;entryX=0.25;entryY=0;entryDx=0;entryDy=0;exitX=0.5;exitY=1;exitDx=0;exitDy=0;" parent="2" source="8" target="5" edge="1">
                    <mxGeometry width="160" relative="1" as="geometry">
                        <mxPoint x="430" y="110" as="sourcePoint"/>
                        <mxPoint x="335" y="150" as="targetPoint"/>
                        <Array as="points">
                            <mxPoint x="450" y="120"/>
                            <mxPoint x="510" y="140"/>
                        </Array>
                    </mxGeometry>
                </mxCell>
                <mxCell id="176" value="" style="endArrow=open;endFill=1;endSize=12;html=1;entryX=0.5;entryY=1;entryDx=0;entryDy=0;exitX=0.5;exitY=0;exitDx=0;exitDy=0;" parent="2" source="5" target="9" edge="1">
                    <mxGeometry width="160" relative="1" as="geometry">
                        <mxPoint x="335" y="175" as="sourcePoint"/>
                        <mxPoint x="590" y="175" as="targetPoint"/>
                        <Array as="points">
                            <mxPoint x="500" y="120"/>
                        </Array>
                    </mxGeometry>
                </mxCell>
                <mxCell id="341" value="«value object»&lt;br&gt;UserBirthDate" style="html=1;" parent="2" vertex="1">
                    <mxGeometry x="550" y="50" width="110.63" height="50" as="geometry"/>
                </mxCell>
                <mxCell id="342" value="«value object»&lt;br&gt;UserTaxNumber" style="html=1;" parent="2" vertex="1">
                    <mxGeometry x="690" y="50" width="110" height="50" as="geometry"/>
                </mxCell>
                <mxCell id="343" value="«value object»&lt;br&gt;UserAcronym" style="html=1;" parent="2" vertex="1">
                    <mxGeometry x="830" y="50" width="110" height="50" as="geometry"/>
                </mxCell>
                <mxCell id="344" value="«value object»&lt;br&gt;UserMechanographicNumber" style="html=1;" parent="2" vertex="1">
                    <mxGeometry x="970" y="50" width="170" height="50" as="geometry"/>
                </mxCell>
                <mxCell id="346" value="" style="endArrow=diamondThin;endFill=1;endSize=24;html=1;exitX=0.5;exitY=1;exitDx=0;exitDy=0;entryX=0.69;entryY=-0.02;entryDx=0;entryDy=0;entryPerimeter=0;" parent="2" source="341" target="5" edge="1">
                    <mxGeometry width="160" relative="1" as="geometry">
                        <mxPoint x="670" y="170" as="sourcePoint"/>
                        <mxPoint x="725" y="120" as="targetPoint"/>
                    </mxGeometry>
                </mxCell>
                <mxCell id="348" value="" style="endArrow=diamondThin;endFill=1;endSize=24;html=1;exitX=0.5;exitY=1;exitDx=0;exitDy=0;entryX=1;entryY=0.25;entryDx=0;entryDy=0;" parent="2" source="343" target="5" edge="1">
                    <mxGeometry width="160" relative="1" as="geometry">
                        <mxPoint x="755" y="110" as="sourcePoint"/>
                        <mxPoint x="650" y="160" as="targetPoint"/>
                    </mxGeometry>
                </mxCell>
                <mxCell id="349" value="" style="endArrow=diamondThin;endFill=1;endSize=24;html=1;exitX=0.5;exitY=1;exitDx=0;exitDy=0;entryX=1.006;entryY=0.624;entryDx=0;entryDy=0;entryPerimeter=0;" parent="2" source="344" target="5" edge="1">
                    <mxGeometry width="160" relative="1" as="geometry">
                        <mxPoint x="765" y="120" as="sourcePoint"/>
                        <mxPoint x="628" y="179" as="targetPoint"/>
                        <Array as="points">
                            <mxPoint x="690" y="190"/>
                        </Array>
                    </mxGeometry>
                </mxCell>
                <mxCell id="351" value="«enum»&lt;br&gt;UserRole" style="html=1;" parent="2" vertex="1">
                    <mxGeometry x="30" y="180" width="100" height="50" as="geometry"/>
                </mxCell>
                <mxCell id="353" value="" style="endArrow=diamondThin;endFill=1;endSize=24;html=1;exitX=1;exitY=0.5;exitDx=0;exitDy=0;entryX=0;entryY=1;entryDx=0;entryDy=0;" parent="2" source="351" target="5" edge="1">
                    <mxGeometry width="160" relative="1" as="geometry">
                        <mxPoint x="615.3149999999996" y="110" as="sourcePoint"/>
                        <mxPoint x="510" y="230" as="targetPoint"/>
                    </mxGeometry>
                </mxCell>
                <mxCell id="381" value="" style="endArrow=diamondThin;endFill=1;endSize=24;html=1;exitX=0.5;exitY=1;exitDx=0;exitDy=0;entryX=0.932;entryY=-0.027;entryDx=0;entryDy=0;entryPerimeter=0;" parent="2" source="342" target="5" edge="1">
                    <mxGeometry width="160" relative="1" as="geometry">
                        <mxPoint x="615.3149999999996" y="110" as="sourcePoint"/>
                        <mxPoint x="660" y="150" as="targetPoint"/>
                        <Array as="points">
                            <mxPoint x="640" y="120"/>
                        </Array>
                    </mxGeometry>
                </mxCell>
                <mxCell id="390" value="" style="endArrow=open;endFill=1;endSize=12;html=1;exitX=0.5;exitY=1;exitDx=0;exitDy=0;entryX=0.5;entryY=0;entryDx=0;entryDy=0;" parent="2" source="344" target="504" edge="1">
                    <mxGeometry width="160" relative="1" as="geometry">
                        <mxPoint x="1130" y="170" as="sourcePoint"/>
                        <mxPoint x="1040" y="150" as="targetPoint"/>
                        <Array as="points">
                            <mxPoint x="1060" y="130"/>
                        </Array>
                    </mxGeometry>
                </mxCell>
                <mxCell id="504" value="«service»&lt;br&gt;MechanographicNumberAssigner" style="html=1;" parent="2" vertex="1">
                    <mxGeometry x="930" y="160" width="200" height="50" as="geometry"/>
                </mxCell>
                <mxCell id="24" value="Shared Board Aggregate" style="swimlane;" parent="1" vertex="1">
                    <mxGeometry x="3750" y="1470" width="610" height="640" as="geometry"/>
                </mxCell>
                <mxCell id="25" value="«entity»&lt;br&gt;«root»&lt;br&gt;SharedBoard" style="html=1;" parent="24" vertex="1">
                    <mxGeometry x="470" y="239" width="100" height="50" as="geometry"/>
                </mxCell>
                <mxCell id="28" value="«entity»&lt;br&gt;BoardCell" style="html=1;" parent="24" vertex="1">
                    <mxGeometry x="470" y="519" width="100" height="50" as="geometry"/>
                </mxCell>
                <mxCell id="29" value="«enum»&lt;br&gt;BoardState" style="html=1;" parent="24" vertex="1">
                    <mxGeometry x="320" y="149" width="100" height="50" as="geometry"/>
                </mxCell>
                <mxCell id="31" value="«value object»&lt;br&gt;BoardTitle" style="html=1;" parent="24" vertex="1">
                    <mxGeometry x="210" y="239" width="100" height="50" as="geometry"/>
                </mxCell>
                <mxCell id="68" value="" style="endArrow=diamondThin;endFill=1;endSize=24;html=1;exitX=0.5;exitY=0;exitDx=0;exitDy=0;entryX=0.5;entryY=1;entryDx=0;entryDy=0;" parent="24" source="28" target="25" edge="1">
                    <mxGeometry width="160" relative="1" as="geometry">
                        <mxPoint x="245" y="274" as="sourcePoint"/>
                        <mxPoint x="290" y="219" as="targetPoint"/>
                    </mxGeometry>
                </mxCell>
                <mxCell id="69" value="«entity»&lt;br&gt;BoardLine" style="html=1;" parent="24" vertex="1">
                    <mxGeometry x="300" y="360" width="100" height="50" as="geometry"/>
                </mxCell>
                <mxCell id="70" value="" style="endArrow=diamondThin;endFill=1;endSize=24;html=1;exitX=1;exitY=0;exitDx=0;exitDy=0;entryX=0.25;entryY=1;entryDx=0;entryDy=0;" parent="24" source="69" target="25" edge="1">
                    <mxGeometry width="160" relative="1" as="geometry">
                        <mxPoint x="340" y="489" as="sourcePoint"/>
                        <mxPoint x="365" y="219" as="targetPoint"/>
                    </mxGeometry>
                </mxCell>
                <mxCell id="71" value="«value object»&lt;br&gt;BoardLineTitle" style="html=1;" parent="24" vertex="1">
                    <mxGeometry x="90" y="380" width="120" height="50" as="geometry"/>
                </mxCell>
                <mxCell id="72" value="«value object»&lt;br&gt;BoardLineINumber" style="html=1;" parent="24" vertex="1">
                    <mxGeometry x="90" y="460" width="120" height="50" as="geometry"/>
                </mxCell>
                <mxCell id="74" value="" style="endArrow=diamondThin;endFill=1;endSize=24;html=1;exitX=1;exitY=0.5;exitDx=0;exitDy=0;entryX=0;entryY=0.5;entryDx=0;entryDy=0;" parent="24" source="71" target="69" edge="1">
                    <mxGeometry width="160" relative="1" as="geometry">
                        <mxPoint x="290" y="520" as="sourcePoint"/>
                        <mxPoint x="90" y="460" as="targetPoint"/>
                    </mxGeometry>
                </mxCell>
                <mxCell id="75" value="" style="endArrow=diamondThin;endFill=1;endSize=24;html=1;exitX=1;exitY=0;exitDx=0;exitDy=0;entryX=0;entryY=1;entryDx=0;entryDy=0;" parent="24" source="72" target="69" edge="1">
                    <mxGeometry width="160" relative="1" as="geometry">
                        <mxPoint x="-10" y="425" as="sourcePoint"/>
                        <mxPoint x="100" y="490" as="targetPoint"/>
                    </mxGeometry>
                </mxCell>
                <mxCell id="76" value="" style="endArrow=block;endSize=16;endFill=0;html=1;entryX=0.25;entryY=1;entryDx=0;entryDy=0;exitX=0.5;exitY=0;exitDx=0;exitDy=0;" parent="24" source="78" target="69" edge="1">
                    <mxGeometry x="0.125" y="30" width="160" relative="1" as="geometry">
                        <mxPoint x="145" y="580" as="sourcePoint"/>
                        <mxPoint x="80" y="590" as="targetPoint"/>
                        <mxPoint as="offset"/>
                        <Array as="points">
                            <mxPoint x="270" y="470"/>
                        </Array>
                    </mxGeometry>
                </mxCell>
                <mxCell id="78" value="«entity»&lt;br&gt;BoardColumn" style="html=1;" parent="24" vertex="1">
                    <mxGeometry x="210" y="540" width="100" height="50" as="geometry"/>
                </mxCell>
                <mxCell id="79" value="«entity»&lt;br&gt;BoardRow" style="html=1;" parent="24" vertex="1">
                    <mxGeometry x="300" y="470" width="100" height="50" as="geometry"/>
                </mxCell>
                <mxCell id="77" value="" style="endArrow=block;endSize=16;endFill=0;html=1;entryX=0.5;entryY=1;entryDx=0;entryDy=0;exitX=0.5;exitY=0;exitDx=0;exitDy=0;" parent="24" source="79" target="69" edge="1">
                    <mxGeometry x="0.125" y="30" width="160" relative="1" as="geometry">
                        <mxPoint x="191" y="580" as="sourcePoint"/>
                        <mxPoint x="155" y="500" as="targetPoint"/>
                        <mxPoint as="offset"/>
                    </mxGeometry>
                </mxCell>
                <mxCell id="81" value="" style="endArrow=open;endFill=1;endSize=12;html=1;exitX=0;exitY=0.5;exitDx=0;exitDy=0;entryX=1;entryY=0.5;entryDx=0;entryDy=0;" parent="24" source="28" target="78" edge="1">
                    <mxGeometry width="160" relative="1" as="geometry">
                        <mxPoint x="420" y="319" as="sourcePoint"/>
                        <mxPoint x="480" y="289" as="targetPoint"/>
                    </mxGeometry>
                </mxCell>
                <mxCell id="165" value="" style="endArrow=open;endFill=1;endSize=12;html=1;exitX=0;exitY=0;exitDx=0;exitDy=0;entryX=1;entryY=1;entryDx=0;entryDy=0;" parent="24" source="28" target="79" edge="1">
                    <mxGeometry width="160" relative="1" as="geometry">
                        <mxPoint x="480" y="554" as="sourcePoint"/>
                        <mxPoint x="360" y="554" as="targetPoint"/>
                    </mxGeometry>
                </mxCell>
                <mxCell id="174" value="" style="endArrow=open;endFill=1;endSize=12;html=1;entryX=0.5;entryY=1;entryDx=0;entryDy=0;exitX=0.25;exitY=0;exitDx=0;exitDy=0;" parent="24" source="25" target="29" edge="1">
                    <mxGeometry width="160" relative="1" as="geometry">
                        <mxPoint x="450" y="219" as="sourcePoint"/>
                        <mxPoint x="530" y="249" as="targetPoint"/>
                    </mxGeometry>
                </mxCell>
                <mxCell id="100" value="«entity»&lt;br&gt;BoardPermission" style="html=1;" parent="24" vertex="1">
                    <mxGeometry x="470" y="59" width="100" height="50" as="geometry"/>
                </mxCell>
                <mxCell id="106" value="" style="endArrow=open;endFill=1;endSize=12;html=1;entryX=0.5;entryY=1;entryDx=0;entryDy=0;exitX=0.5;exitY=0;exitDx=0;exitDy=0;" parent="24" source="25" target="100" edge="1">
                    <mxGeometry width="160" relative="1" as="geometry">
                        <mxPoint x="540" y="208" as="sourcePoint"/>
                        <mxPoint x="560" y="149" as="targetPoint"/>
                    </mxGeometry>
                </mxCell>
                <mxCell id="355" style="edgeStyle=none;html=1;" parent="24" source="99" target="339" edge="1">
                    <mxGeometry relative="1" as="geometry"/>
                </mxCell>
                <mxCell id="99" value="«enum»&lt;br&gt;BoardPermissionType" style="html=1;" parent="24" vertex="1">
                    <mxGeometry x="290" y="59" width="130" height="50" as="geometry"/>
                </mxCell>
                <mxCell id="175" value="" style="endArrow=open;endFill=1;endSize=12;html=1;entryX=1;entryY=0.5;entryDx=0;entryDy=0;exitX=0;exitY=0.5;exitDx=0;exitDy=0;" parent="24" source="100" target="99" edge="1">
                    <mxGeometry width="160" relative="1" as="geometry">
                        <mxPoint x="470" y="59" as="sourcePoint"/>
                        <mxPoint x="505" y="99" as="targetPoint"/>
                    </mxGeometry>
                </mxCell>
                <mxCell id="339" value="O owner da board vai ter o seu próprio tipo de permissão (diferente do read e do write)" style="rounded=1;whiteSpace=wrap;html=1;" parent="24" vertex="1">
                    <mxGeometry x="100" y="39" width="140" height="90" as="geometry"/>
                </mxCell>
                <mxCell id="525" value="" style="endArrow=diamondThin;endFill=1;endSize=24;html=1;exitX=1;exitY=0.5;exitDx=0;exitDy=0;entryX=0;entryY=0.5;entryDx=0;entryDy=0;" parent="24" source="31" target="25" edge="1">
                    <mxGeometry width="160" relative="1" as="geometry">
                        <mxPoint x="410" y="370" as="sourcePoint"/>
                        <mxPoint x="505" y="299" as="targetPoint"/>
                    </mxGeometry>
                </mxCell>
                <mxCell id="107" value="" style="endArrow=open;endFill=1;endSize=12;html=1;entryX=0;entryY=0.75;entryDx=0;entryDy=0;exitX=1;exitY=0.5;exitDx=0;exitDy=0;" parent="1" source="100" target="5" edge="1">
                    <mxGeometry width="160" relative="1" as="geometry">
                        <mxPoint x="4310" y="1660" as="sourcePoint"/>
                        <mxPoint x="4290" y="1860" as="targetPoint"/>
                        <Array as="points"/>
                    </mxGeometry>
                </mxCell>
                <mxCell id="119" value="" style="endArrow=open;endFill=1;endSize=12;html=1;exitX=0.998;exitY=0.84;exitDx=0;exitDy=0;exitPerimeter=0;entryX=0;entryY=0.5;entryDx=0;entryDy=0;" parent="1" source="5" target="503" edge="1">
                    <mxGeometry width="160" relative="1" as="geometry">
                        <mxPoint x="4820" y="1635" as="sourcePoint"/>
                        <mxPoint x="5670" y="1690" as="targetPoint"/>
                        <Array as="points">
                            <mxPoint x="5590" y="1700"/>
                        </Array>
                    </mxGeometry>
                </mxCell>
                <mxCell id="120" value="" style="endArrow=open;endFill=1;endSize=12;html=1;entryX=0;entryY=0.5;entryDx=0;entryDy=0;exitX=1;exitY=0.5;exitDx=0;exitDy=0;" parent="1" source="503" target="109" edge="1">
                    <mxGeometry width="160" relative="1" as="geometry">
                        <mxPoint x="5810" y="1645" as="sourcePoint"/>
                        <mxPoint x="5710" y="1695" as="targetPoint"/>
                    </mxGeometry>
                </mxCell>
                <mxCell id="278" value="" style="endArrow=open;endFill=1;endSize=12;html=1;entryX=0;entryY=1;entryDx=0;entryDy=0;exitX=0.5;exitY=0;exitDx=0;exitDy=0;" parent="1" source="416" target="5" edge="1">
                    <mxGeometry width="160" relative="1" as="geometry">
                        <mxPoint x="4755" y="2710" as="sourcePoint"/>
                        <mxPoint x="4290" y="2449.9999999999995" as="targetPoint"/>
                    </mxGeometry>
                </mxCell>
                <mxCell id="312" value="" style="endArrow=open;endFill=1;endSize=12;html=1;entryX=0.5;entryY=0;entryDx=0;entryDy=0;exitX=0.75;exitY=1;exitDx=0;exitDy=0;" parent="1" source="5" target="502" edge="1">
                    <mxGeometry width="160" relative="1" as="geometry">
                        <mxPoint x="5100" y="1690" as="sourcePoint"/>
                        <mxPoint x="5530" y="1960" as="targetPoint"/>
                    </mxGeometry>
                </mxCell>
                <mxCell id="280" value="" style="endArrow=open;endFill=1;endSize=12;html=1;entryX=0;entryY=0.75;entryDx=0;entryDy=0;exitX=0.75;exitY=0;exitDx=0;exitDy=0;" parent="1" source="416" target="269" edge="1">
                    <mxGeometry width="160" relative="1" as="geometry">
                        <mxPoint x="4782.5" y="2710" as="sourcePoint"/>
                        <mxPoint x="4765" y="2159.9999999999995" as="targetPoint"/>
                        <Array as="points">
                            <mxPoint x="4810" y="2820"/>
                            <mxPoint x="5360" y="2660"/>
                        </Array>
                    </mxGeometry>
                </mxCell>
                <mxCell id="281" value="«entity»&lt;br&gt;EnrolledStudent" style="html=1;" parent="1" vertex="1">
                    <mxGeometry x="5110" y="2230" width="100" height="50" as="geometry"/>
                </mxCell>
                <mxCell id="287" value="" style="endArrow=open;endFill=1;endSize=12;html=1;entryX=0.127;entryY=-0.02;entryDx=0;entryDy=0;exitX=0.5;exitY=1;exitDx=0;exitDy=0;entryPerimeter=0;" parent="1" source="286" target="269" edge="1">
                    <mxGeometry width="160" relative="1" as="geometry">
                        <mxPoint x="5044.38" y="2230" as="sourcePoint"/>
                        <mxPoint x="5044.38" y="2160" as="targetPoint"/>
                        <Array as="points">
                            <mxPoint x="5610" y="2280"/>
                            <mxPoint x="6060" y="2450"/>
                        </Array>
                    </mxGeometry>
                </mxCell>
                <mxCell id="288" value="" style="endArrow=open;endFill=1;endSize=12;html=1;exitX=0.5;exitY=0;exitDx=0;exitDy=0;entryX=0.75;entryY=1;entryDx=0;entryDy=0;" parent="1" source="286" target="5" edge="1">
                    <mxGeometry width="160" relative="1" as="geometry">
                        <mxPoint x="5690" y="2210" as="sourcePoint"/>
                        <mxPoint x="5090" y="1700" as="targetPoint"/>
                        <Array as="points">
                            <mxPoint x="5090" y="1730"/>
                        </Array>
                    </mxGeometry>
                </mxCell>
                <mxCell id="290" value="Class Aggregate" style="swimlane;startSize=23;" parent="1" vertex="1">
                    <mxGeometry x="5920" y="1880" width="710" height="450" as="geometry"/>
                </mxCell>
                <mxCell id="291" value="«entity»&lt;br&gt;«root»&lt;br&gt;Class" style="html=1;" parent="290" vertex="1">
                    <mxGeometry x="50" y="270" width="110" height="50" as="geometry"/>
                </mxCell>
                <mxCell id="292" value="" style="endArrow=block;endSize=16;endFill=0;html=1;exitX=0.5;exitY=1;exitDx=0;exitDy=0;entryX=0.318;entryY=-0.04;entryDx=0;entryDy=0;entryPerimeter=0;" parent="290" source="299" target="291" edge="1">
                    <mxGeometry x="0.125" y="30" width="160" relative="1" as="geometry">
                        <mxPoint x="75" y="400" as="sourcePoint"/>
                        <mxPoint x="85" y="340" as="targetPoint"/>
                        <mxPoint as="offset"/>
                    </mxGeometry>
                </mxCell>
                <mxCell id="293" value="«value object»&lt;br&gt;ClassDuration" style="html=1;" parent="290" vertex="1">
                    <mxGeometry x="250" y="220" width="110" height="50" as="geometry"/>
                </mxCell>
                <mxCell id="294" value="«enum»&lt;br&gt;RecurrentClassWeekDay" style="html=1;" parent="290" vertex="1">
                    <mxGeometry x="430" y="40" width="160" height="50" as="geometry"/>
                </mxCell>
                <mxCell id="295" value="«value object»&lt;br&gt;ClassTitle" style="html=1;" parent="290" vertex="1">
                    <mxGeometry x="250" y="320" width="110" height="50" as="geometry"/>
                </mxCell>
                <mxCell id="296" value="" style="endArrow=diamondThin;endFill=1;endSize=24;html=1;entryX=1;entryY=0;entryDx=0;entryDy=0;exitX=0;exitY=0.5;exitDx=0;exitDy=0;" parent="290" source="293" target="291" edge="1">
                    <mxGeometry width="160" relative="1" as="geometry">
                        <mxPoint x="-265" y="370" as="sourcePoint"/>
                        <mxPoint x="-335" y="340" as="targetPoint"/>
                    </mxGeometry>
                </mxCell>
                <mxCell id="297" value="" style="endArrow=diamondThin;endFill=1;endSize=24;html=1;entryX=0.5;entryY=0;entryDx=0;entryDy=0;exitX=0;exitY=0.5;exitDx=0;exitDy=0;" parent="290" source="294" target="301" edge="1">
                    <mxGeometry width="160" relative="1" as="geometry">
                        <mxPoint x="220.0000000000009" y="225" as="sourcePoint"/>
                        <mxPoint x="170.0000000000009" y="280" as="targetPoint"/>
                        <Array as="points">
                            <mxPoint x="320" y="100"/>
                        </Array>
                    </mxGeometry>
                </mxCell>
                <mxCell id="298" value="" style="endArrow=diamondThin;endFill=1;endSize=24;html=1;entryX=1;entryY=1;entryDx=0;entryDy=0;exitX=0;exitY=0.5;exitDx=0;exitDy=0;" parent="290" source="295" target="291" edge="1">
                    <mxGeometry width="160" relative="1" as="geometry">
                        <mxPoint x="220.0000000000009" y="305" as="sourcePoint"/>
                        <mxPoint x="170.0000000000009" y="305" as="targetPoint"/>
                    </mxGeometry>
                </mxCell>
                <mxCell id="299" value="«entity»&lt;br&gt;ExtraClass" style="html=1;" parent="290" vertex="1">
                    <mxGeometry x="30" y="140" width="110" height="50" as="geometry"/>
                </mxCell>
                <mxCell id="301" value="«entity»&lt;br&gt;RecurrentClass" style="html=1;" parent="290" vertex="1">
                    <mxGeometry x="200" y="130" width="110" height="50" as="geometry"/>
                </mxCell>
                <mxCell id="300" value="" style="endArrow=block;endSize=16;endFill=0;html=1;entryX=0.75;entryY=0;entryDx=0;entryDy=0;exitX=0.5;exitY=1;exitDx=0;exitDy=0;" parent="290" source="301" target="291" edge="1">
                    <mxGeometry x="0.125" y="30" width="160" relative="1" as="geometry">
                        <mxPoint x="170" y="500" as="sourcePoint"/>
                        <mxPoint x="94.98000000000138" y="333.1999999999998" as="targetPoint"/>
                        <mxPoint as="offset"/>
                    </mxGeometry>
                </mxCell>
                <mxCell id="303" value="«entity»&lt;br&gt;ClassOcurrence" style="html=1;" parent="290" vertex="1">
                    <mxGeometry x="450" y="200" width="110" height="50" as="geometry"/>
                </mxCell>
                <mxCell id="361" value="«entity»&lt;br&gt;ExtraClassParticipants" style="html=1;" parent="290" vertex="1">
                    <mxGeometry x="20" y="40" width="130" height="50" as="geometry"/>
                </mxCell>
                <mxCell id="362" value="" style="endArrow=open;endFill=1;endSize=12;html=1;exitX=0.5;exitY=0;exitDx=0;exitDy=0;entryX=0.5;entryY=1;entryDx=0;entryDy=0;" parent="290" source="299" target="361" edge="1">
                    <mxGeometry width="160" relative="1" as="geometry">
                        <mxPoint x="150" y="207.5" as="sourcePoint"/>
                        <mxPoint x="108" y="243" as="targetPoint"/>
                        <Array as="points"/>
                    </mxGeometry>
                </mxCell>
                <mxCell id="372" value="" style="endArrow=open;endFill=1;endSize=12;html=1;exitX=0;exitY=0.5;exitDx=0;exitDy=0;entryX=1;entryY=0.5;entryDx=0;entryDy=0;" parent="290" source="303" target="301" edge="1">
                    <mxGeometry width="160" relative="1" as="geometry">
                        <mxPoint x="-140" y="220" as="sourcePoint"/>
                        <mxPoint x="300" y="80" as="targetPoint"/>
                    </mxGeometry>
                </mxCell>
                <mxCell id="373" value="«value object»&lt;br&gt;ExtraClassDate" style="html=1;" parent="290" vertex="1">
                    <mxGeometry x="180" y="40" width="110" height="50" as="geometry"/>
                </mxCell>
                <mxCell id="375" value="" style="endArrow=diamondThin;endFill=1;endSize=24;html=1;entryX=0.75;entryY=0;entryDx=0;entryDy=0;exitX=0.5;exitY=1;exitDx=0;exitDy=0;" parent="290" source="373" target="299" edge="1">
                    <mxGeometry width="160" relative="1" as="geometry">
                        <mxPoint x="260" y="255" as="sourcePoint"/>
                        <mxPoint x="170" y="280" as="targetPoint"/>
                        <Array as="points">
                            <mxPoint x="140" y="110"/>
                        </Array>
                    </mxGeometry>
                </mxCell>
                <mxCell id="377" value="«value object»&lt;br&gt;ClassOccurrenceDate" style="html=1;" parent="290" vertex="1">
                    <mxGeometry x="440" y="310" width="130" height="50" as="geometry"/>
                </mxCell>
                <mxCell id="376" value="" style="endArrow=diamondThin;endFill=1;endSize=24;html=1;entryX=0.5;entryY=1;entryDx=0;entryDy=0;exitX=0.5;exitY=0;exitDx=0;exitDy=0;" parent="290" source="377" target="303" edge="1">
                    <mxGeometry width="160" relative="1" as="geometry">
                        <mxPoint x="505" y="260" as="sourcePoint"/>
                        <mxPoint x="190" y="320" as="targetPoint"/>
                    </mxGeometry>
                </mxCell>
                <mxCell id="378" value="«value object»&lt;br&gt;RecurrentClassTime" style="html=1;" parent="290" vertex="1">
                    <mxGeometry x="550" y="110" width="130" height="50" as="geometry"/>
                </mxCell>
                <mxCell id="380" value="" style="endArrow=diamondThin;endFill=1;endSize=24;html=1;entryX=1;entryY=0;entryDx=0;entryDy=0;exitX=0;exitY=0.5;exitDx=0;exitDy=0;" parent="290" source="378" target="301" edge="1">
                    <mxGeometry width="160" relative="1" as="geometry">
                        <mxPoint x="260" y="255" as="sourcePoint"/>
                        <mxPoint x="170" y="280" as="targetPoint"/>
                    </mxGeometry>
                </mxCell>
                <mxCell id="308" value="" style="endArrow=open;endFill=1;endSize=12;html=1;entryX=0.5;entryY=0;entryDx=0;entryDy=0;exitX=0.5;exitY=1;exitDx=0;exitDy=0;" parent="1" source="281" target="436" edge="1">
                    <mxGeometry width="160" relative="1" as="geometry">
                        <mxPoint x="5092.509999999999" y="2230" as="sourcePoint"/>
                        <mxPoint x="5590" y="2860" as="targetPoint"/>
                        <Array as="points">
                            <mxPoint x="5450" y="2580"/>
                        </Array>
                    </mxGeometry>
                </mxCell>
                <mxCell id="314" value="" style="endArrow=open;endFill=1;endSize=12;html=1;entryX=0.5;entryY=1;entryDx=0;entryDy=0;exitX=0.75;exitY=0;exitDx=0;exitDy=0;" parent="1" source="269" target="291" edge="1">
                    <mxGeometry width="160" relative="1" as="geometry">
                        <mxPoint x="5300.000000000001" y="2280" as="sourcePoint"/>
                        <mxPoint x="5690.000000000001" y="2490" as="targetPoint"/>
                        <Array as="points"/>
                    </mxGeometry>
                </mxCell>
                <mxCell id="315" value="" style="endArrow=diamondThin;endFill=1;endSize=24;html=1;exitX=1;exitY=0.5;exitDx=0;exitDy=0;entryX=0;entryY=0.25;entryDx=0;entryDy=0;" parent="1" source="281" target="269" edge="1">
                    <mxGeometry width="160" relative="1" as="geometry">
                        <mxPoint x="5277.5" y="2410" as="sourcePoint"/>
                        <mxPoint x="5240" y="2390" as="targetPoint"/>
                        <Array as="points">
                            <mxPoint x="5620" y="2430"/>
                        </Array>
                    </mxGeometry>
                </mxCell>
                <mxCell id="268" value="Course Aggregate" style="swimlane;" parent="1" vertex="1">
                    <mxGeometry x="5900" y="2410" width="430" height="320" as="geometry"/>
                </mxCell>
                <mxCell id="269" value="«entity»&lt;br&gt;«root»&lt;br&gt;Course" style="html=1;" parent="268" vertex="1">
                    <mxGeometry x="147" y="56" width="110" height="50" as="geometry"/>
                </mxCell>
                <mxCell id="270" value="«value object»&lt;br&gt;CourseName" style="html=1;" parent="268" vertex="1">
                    <mxGeometry x="302" y="226" width="110" height="50" as="geometry"/>
                </mxCell>
                <mxCell id="271" value="«value object»&lt;br&gt;CourseCode" style="html=1;" parent="268" vertex="1">
                    <mxGeometry x="302" y="56" width="110" height="50" as="geometry"/>
                </mxCell>
                <mxCell id="272" value="«enum»&lt;br&gt;CourseState" style="html=1;" parent="268" vertex="1">
                    <mxGeometry x="172" y="380" width="110" height="50" as="geometry"/>
                </mxCell>
                <mxCell id="273" value="«value object»&lt;br&gt;CourseDescription" style="html=1;" parent="268" vertex="1">
                    <mxGeometry x="302" y="141" width="110" height="50" as="geometry"/>
                </mxCell>
                <mxCell id="274" value="" style="endArrow=open;endFill=1;endSize=12;html=1;exitX=0.25;exitY=1;exitDx=0;exitDy=0;entryX=0.5;entryY=0;entryDx=0;entryDy=0;" parent="268" source="269" target="272" edge="1">
                    <mxGeometry width="160" relative="1" as="geometry">
                        <mxPoint x="-48" y="206" as="sourcePoint"/>
                        <mxPoint x="-48" y="156" as="targetPoint"/>
                    </mxGeometry>
                </mxCell>
                <mxCell id="275" value="" style="endArrow=diamondThin;endFill=1;endSize=24;html=1;entryX=0.5;entryY=1;entryDx=0;entryDy=0;exitX=0;exitY=0;exitDx=0;exitDy=0;" parent="268" source="270" target="269" edge="1">
                    <mxGeometry width="160" relative="1" as="geometry">
                        <mxPoint x="37" y="-249" as="sourcePoint"/>
                        <mxPoint x="-18" y="-249" as="targetPoint"/>
                    </mxGeometry>
                </mxCell>
                <mxCell id="276" value="" style="endArrow=diamondThin;endFill=1;endSize=24;html=1;entryX=1;entryY=0.5;entryDx=0;entryDy=0;exitX=0;exitY=0.5;exitDx=0;exitDy=0;" parent="268" source="271" target="269" edge="1">
                    <mxGeometry width="160" relative="1" as="geometry">
                        <mxPoint x="87" y="146" as="sourcePoint"/>
                        <mxPoint x="157" y="116" as="targetPoint"/>
                    </mxGeometry>
                </mxCell>
                <mxCell id="277" value="" style="endArrow=diamondThin;endFill=1;endSize=24;html=1;entryX=1;entryY=1;entryDx=0;entryDy=0;exitX=0;exitY=0;exitDx=0;exitDy=0;" parent="268" source="273" target="269" edge="1">
                    <mxGeometry width="160" relative="1" as="geometry">
                        <mxPoint x="337" y="146" as="sourcePoint"/>
                        <mxPoint x="267" y="116" as="targetPoint"/>
                    </mxGeometry>
                </mxCell>
                <mxCell id="358" value="«entity»&lt;br&gt;CourseTeacher" style="html=1;" parent="268" vertex="1">
                    <mxGeometry x="22" y="141" width="110" height="50" as="geometry"/>
                </mxCell>
                <mxCell id="359" value="" style="endArrow=open;endFill=1;endSize=12;html=1;entryX=0.75;entryY=0;entryDx=0;entryDy=0;exitX=0;exitY=1;exitDx=0;exitDy=0;" parent="268" source="269" target="358" edge="1">
                    <mxGeometry width="160" relative="1" as="geometry">
                        <mxPoint x="-158" y="76" as="sourcePoint"/>
                        <mxPoint x="157" y="103.5" as="targetPoint"/>
                        <Array as="points"/>
                    </mxGeometry>
                </mxCell>
                <mxCell id="357" value="«entity»&lt;br&gt;CourseManager" style="html=1;" parent="268" vertex="1">
                    <mxGeometry x="32" y="380" width="110" height="50" as="geometry"/>
                </mxCell>
                <mxCell id="360" value="" style="endArrow=open;endFill=1;endSize=12;html=1;entryX=1;entryY=0;entryDx=0;entryDy=0;exitX=0.145;exitY=1.02;exitDx=0;exitDy=0;exitPerimeter=0;" parent="268" source="269" target="357" edge="1">
                    <mxGeometry width="160" relative="1" as="geometry">
                        <mxPoint x="157" y="116" as="sourcePoint"/>
                        <mxPoint x="122" y="151" as="targetPoint"/>
                        <Array as="points"/>
                    </mxGeometry>
                </mxCell>
                <mxCell id="316" value="" style="endArrow=diamondThin;endFill=1;endSize=24;html=1;exitX=0.5;exitY=0;exitDx=0;exitDy=0;entryX=0.25;entryY=1;entryDx=0;entryDy=0;" parent="1" source="281" target="5" edge="1">
                    <mxGeometry width="160" relative="1" as="geometry">
                        <mxPoint x="4836.26" y="2230" as="sourcePoint"/>
                        <mxPoint x="5060" y="1880" as="targetPoint"/>
                        <Array as="points">
                            <mxPoint x="5030" y="1770"/>
                        </Array>
                    </mxGeometry>
                </mxCell>
                <mxCell id="313" value="" style="endArrow=open;endFill=1;endSize=12;html=1;entryX=0;entryY=0.5;entryDx=0;entryDy=0;" parent="1" target="291" edge="1">
                    <mxGeometry width="160" relative="1" as="geometry">
                        <mxPoint x="5620" y="2010" as="sourcePoint"/>
                        <mxPoint x="5169.999999999999" y="1975" as="targetPoint"/>
                    </mxGeometry>
                </mxCell>
                <mxCell id="363" value="" style="endArrow=open;endFill=1;endSize=12;html=1;exitX=0;exitY=0.5;exitDx=0;exitDy=0;entryX=1;entryY=1;entryDx=0;entryDy=0;" parent="1" source="361" target="5" edge="1">
                    <mxGeometry width="160" relative="1" as="geometry">
                        <mxPoint x="5110" y="1690" as="sourcePoint"/>
                        <mxPoint x="5120" y="1680" as="targetPoint"/>
                        <Array as="points">
                            <mxPoint x="5130" y="1680"/>
                        </Array>
                    </mxGeometry>
                </mxCell>
                <mxCell id="365" value="" style="endArrow=open;endFill=1;endSize=12;html=1;exitX=0;exitY=0;exitDx=0;exitDy=0;entryX=0.5;entryY=1;entryDx=0;entryDy=0;" parent="1" source="358" target="5" edge="1">
                    <mxGeometry width="160" relative="1" as="geometry">
                        <mxPoint x="4792.5" y="2720" as="sourcePoint"/>
                        <mxPoint x="5220" y="1800" as="targetPoint"/>
                        <Array as="points">
                            <mxPoint x="5470" y="2300"/>
                            <mxPoint x="5390" y="2230"/>
                            <mxPoint x="5070" y="1730"/>
                        </Array>
                    </mxGeometry>
                </mxCell>
                <mxCell id="366" value="" style="endArrow=open;endFill=1;endSize=12;html=1;exitX=0;exitY=0;exitDx=0;exitDy=0;entryX=0.25;entryY=1;entryDx=0;entryDy=0;" parent="1" source="357" target="5" edge="1">
                    <mxGeometry width="160" relative="1" as="geometry">
                        <mxPoint x="5932" y="2561" as="sourcePoint"/>
                        <mxPoint x="5070" y="1680" as="targetPoint"/>
                        <Array as="points">
                            <mxPoint x="5500" y="2480"/>
                            <mxPoint x="5220" y="2130"/>
                            <mxPoint x="5050" y="1730"/>
                        </Array>
                    </mxGeometry>
                </mxCell>
                <mxCell id="394" value="" style="group" parent="1" vertex="1" connectable="0">
                    <mxGeometry x="5450" y="2070" width="310" height="190" as="geometry"/>
                </mxCell>
                <mxCell id="286" value="«entity»&lt;br&gt;EnrollmentRequest" style="html=1;" parent="394" vertex="1">
                    <mxGeometry x="20" y="30" width="120" height="50" as="geometry"/>
                </mxCell>
                <mxCell id="391" value="«enum»&lt;br&gt;EnrollmentRequestState" style="html=1;" parent="394" vertex="1">
                    <mxGeometry x="150" y="100" width="150" height="50" as="geometry"/>
                </mxCell>
                <mxCell id="393" value="EnrollmentRequestAggregate" style="swimlane;startSize=23;" parent="394" vertex="1">
                    <mxGeometry width="310" height="190" as="geometry"/>
                </mxCell>
                <mxCell id="392" value="" style="endArrow=diamondThin;endFill=1;endSize=24;html=1;entryX=1;entryY=0.5;entryDx=0;entryDy=0;exitX=0.5;exitY=0;exitDx=0;exitDy=0;" parent="394" source="391" target="286" edge="1">
                    <mxGeometry width="160" relative="1" as="geometry">
                        <mxPoint x="6090" y="2145" as="sourcePoint"/>
                        <mxPoint x="6000" y="2120" as="targetPoint"/>
                    </mxGeometry>
                </mxCell>
                <mxCell id="395" value="" style="endArrow=open;endFill=1;endSize=12;html=1;entryX=0;entryY=0;entryDx=0;entryDy=0;exitX=0.75;exitY=1;exitDx=0;exitDy=0;" parent="1" source="5" target="291" edge="1">
                    <mxGeometry width="160" relative="1" as="geometry">
                        <mxPoint x="5490" y="1814.9999999999995" as="sourcePoint"/>
                        <mxPoint x="5690" y="1899.9999999999995" as="targetPoint"/>
                        <Array as="points">
                            <mxPoint x="5670" y="1960"/>
                        </Array>
                    </mxGeometry>
                </mxCell>
                <mxCell id="396" value="MeetingInvitation Aggregate" style="swimlane;" parent="1" vertex="1">
                    <mxGeometry x="6310" y="1640" width="200" height="220" as="geometry"/>
                </mxCell>
                <mxCell id="401" value="«entity»&lt;br&gt;MeetingInvitation" style="html=1;" parent="396" vertex="1">
                    <mxGeometry x="50" y="50" width="100" height="50" as="geometry"/>
                </mxCell>
                <mxCell id="402" value="«enum»&lt;br&gt;InvitationStatus" style="html=1;" parent="396" vertex="1">
                    <mxGeometry x="50" y="140" width="100" height="50" as="geometry"/>
                </mxCell>
                <mxCell id="406" value="" style="endArrow=open;endFill=1;endSize=12;html=1;exitX=0.5;exitY=1;exitDx=0;exitDy=0;entryX=0.5;entryY=0;entryDx=0;entryDy=0;" parent="396" source="401" target="402" edge="1">
                    <mxGeometry width="160" relative="1" as="geometry">
                        <mxPoint x="-35.00000000000091" y="150" as="sourcePoint"/>
                        <mxPoint x="59.99999999999909" y="110" as="targetPoint"/>
                    </mxGeometry>
                </mxCell>
                <mxCell id="408" value="" style="endArrow=open;endFill=1;endSize=12;html=1;exitX=0;exitY=0.5;exitDx=0;exitDy=0;entryX=1;entryY=1;entryDx=0;entryDy=0;" parent="1" source="401" target="109" edge="1">
                    <mxGeometry width="160" relative="1" as="geometry">
                        <mxPoint x="6165" y="1620" as="sourcePoint"/>
                        <mxPoint x="6260" y="1580" as="targetPoint"/>
                    </mxGeometry>
                </mxCell>
                <mxCell id="409" value="" style="endArrow=open;endFill=1;endSize=12;html=1;exitX=0;exitY=1;exitDx=0;exitDy=0;entryX=1;entryY=0.75;entryDx=0;entryDy=0;" parent="1" source="401" target="5" edge="1">
                    <mxGeometry width="160" relative="1" as="geometry">
                        <mxPoint x="6490" y="1715" as="sourcePoint"/>
                        <mxPoint x="6165" y="1670" as="targetPoint"/>
                        <Array as="points">
                            <mxPoint x="5760" y="1750"/>
                        </Array>
                    </mxGeometry>
                </mxCell>
                <mxCell id="410" value="" style="endArrow=open;endFill=1;endSize=12;html=1;entryX=0.75;entryY=0;entryDx=0;entryDy=0;exitX=0;exitY=0.5;exitDx=0;exitDy=0;" parent="1" source="438" target="442" edge="1">
                    <mxGeometry width="160" relative="1" as="geometry">
                        <mxPoint x="5855" y="3054" as="sourcePoint"/>
                        <mxPoint x="4797.5" y="3054" as="targetPoint"/>
                        <Array as="points">
                            <mxPoint x="5230" y="3314"/>
                        </Array>
                    </mxGeometry>
                </mxCell>
                <mxCell id="411" style="edgeStyle=none;html=1;entryX=0.5;entryY=1;entryDx=0;entryDy=0;" parent="1" source="416" target="487" edge="1">
                    <mxGeometry relative="1" as="geometry"/>
                </mxCell>
                <mxCell id="412" value="" style="endArrow=open;endFill=1;endSize=12;html=1;entryX=0.5;entryY=0;entryDx=0;entryDy=0;exitX=0.5;exitY=1;exitDx=0;exitDy=0;" parent="1" source="417" target="442" edge="1">
                    <mxGeometry width="160" relative="1" as="geometry">
                        <mxPoint x="4568.75" y="3084" as="sourcePoint"/>
                        <mxPoint x="4683.75" y="3114" as="targetPoint"/>
                    </mxGeometry>
                </mxCell>
                <mxCell id="414" value="" style="endArrow=open;endFill=1;endSize=12;html=1;entryX=1;entryY=0.5;entryDx=0;entryDy=0;exitX=0;exitY=0.5;exitDx=0;exitDy=0;" parent="1" source="436" target="416" edge="1">
                    <mxGeometry width="160" relative="1" as="geometry">
                        <mxPoint x="4745" y="3144" as="sourcePoint"/>
                        <mxPoint x="4745" y="2464" as="targetPoint"/>
                        <Array as="points"/>
                    </mxGeometry>
                </mxCell>
                <mxCell id="415" value="Exam Aggregate" style="swimlane;" parent="1" vertex="1">
                    <mxGeometry x="4300" y="2914" width="800" height="370" as="geometry"/>
                </mxCell>
                <mxCell id="416" value="«entity»&lt;br&gt;«root»&lt;br&gt;Exam" style="html=1;" parent="415" vertex="1">
                    <mxGeometry x="350" y="110" width="110" height="50" as="geometry"/>
                </mxCell>
                <mxCell id="417" value="«entity»&lt;br&gt;ExamSection" style="html=1;" parent="415" vertex="1">
                    <mxGeometry x="350" y="255" width="110" height="50" as="geometry"/>
                </mxCell>
                <mxCell id="418" value="«value object»&lt;br&gt;ExamHeader" style="html=1;" parent="415" vertex="1">
                    <mxGeometry x="120" y="60" width="110" height="50" as="geometry"/>
                </mxCell>
                <mxCell id="420" value="«value object»&lt;br&gt;SectionDescription" style="html=1;" parent="415" vertex="1">
                    <mxGeometry x="155" y="255" width="110" height="50" as="geometry"/>
                </mxCell>
                <mxCell id="421" value="«value object»&lt;br&gt;ExamOpenPeriod" style="html=1;" parent="415" vertex="1">
                    <mxGeometry x="575" y="295" width="110" height="50" as="geometry"/>
                </mxCell>
                <mxCell id="423" value="" style="endArrow=diamondThin;endFill=1;endSize=24;html=1;entryX=0.5;entryY=1;entryDx=0;entryDy=0;exitX=0.5;exitY=0;exitDx=0;exitDy=0;" parent="415" source="417" target="416" edge="1">
                    <mxGeometry width="160" relative="1" as="geometry">
                        <mxPoint x="497.5" y="230" as="sourcePoint"/>
                        <mxPoint x="237.5" y="175" as="targetPoint"/>
                    </mxGeometry>
                </mxCell>
                <mxCell id="424" value="" style="endArrow=diamondThin;endFill=1;endSize=24;html=1;exitX=1;exitY=0.5;exitDx=0;exitDy=0;entryX=0;entryY=0;entryDx=0;entryDy=0;" parent="415" source="418" target="416" edge="1">
                    <mxGeometry width="160" relative="1" as="geometry">
                        <mxPoint x="285" y="300" as="sourcePoint"/>
                        <mxPoint x="345" y="75" as="targetPoint"/>
                    </mxGeometry>
                </mxCell>
                <mxCell id="425" value="" style="endArrow=diamondThin;endFill=1;endSize=24;html=1;exitX=1;exitY=0.5;exitDx=0;exitDy=0;entryX=0;entryY=0.5;entryDx=0;entryDy=0;" parent="415" source="420" target="417" edge="1">
                    <mxGeometry width="160" relative="1" as="geometry">
                        <mxPoint x="155" y="300" as="sourcePoint"/>
                        <mxPoint x="322.5" y="275" as="targetPoint"/>
                    </mxGeometry>
                </mxCell>
                <mxCell id="426" value="«enum»&lt;br&gt;FeedbackType" style="html=1;" parent="415" vertex="1">
                    <mxGeometry x="35" y="170" width="120" height="50" as="geometry"/>
                </mxCell>
                <mxCell id="431" value="«entity»&lt;br&gt;AutomaticFormativeExam" style="html=1;" parent="415" vertex="1">
                    <mxGeometry x="565" y="65" width="175" height="50" as="geometry"/>
                </mxCell>
                <mxCell id="432" value="" style="endArrow=block;endSize=16;endFill=0;html=1;exitX=0;exitY=0.5;exitDx=0;exitDy=0;entryX=1;entryY=0;entryDx=0;entryDy=0;" parent="415" source="431" target="416" edge="1">
                    <mxGeometry x="0.125" y="30" width="160" relative="1" as="geometry">
                        <mxPoint x="530" y="540" as="sourcePoint"/>
                        <mxPoint x="425.8900000000003" y="423.35000000000036" as="targetPoint"/>
                        <mxPoint as="offset"/>
                        <Array as="points"/>
                    </mxGeometry>
                </mxCell>
                <mxCell id="433" value="«entity»&lt;br&gt;AutomatedExam" style="html=1;" parent="415" vertex="1">
                    <mxGeometry x="575" y="185" width="110" height="50" as="geometry"/>
                </mxCell>
                <mxCell id="434" value="" style="endArrow=block;endSize=16;endFill=0;html=1;exitX=0;exitY=0.5;exitDx=0;exitDy=0;entryX=1;entryY=0.75;entryDx=0;entryDy=0;" parent="415" source="433" target="416" edge="1">
                    <mxGeometry x="0.125" y="30" width="160" relative="1" as="geometry">
                        <mxPoint x="535" y="95" as="sourcePoint"/>
                        <mxPoint x="485" y="130" as="targetPoint"/>
                        <mxPoint as="offset"/>
                        <Array as="points"/>
                    </mxGeometry>
                </mxCell>
                <mxCell id="493" value="" style="endArrow=diamondThin;endFill=1;endSize=24;html=1;entryX=0.5;entryY=1;entryDx=0;entryDy=0;exitX=0.5;exitY=0;exitDx=0;exitDy=0;" parent="415" source="421" target="433" edge="1">
                    <mxGeometry width="160" relative="1" as="geometry">
                        <mxPoint x="415" y="265" as="sourcePoint"/>
                        <mxPoint x="415" y="170" as="targetPoint"/>
                    </mxGeometry>
                </mxCell>
                <mxCell id="495" value="«enum»&lt;br&gt;GradingType" style="html=1;" parent="415" vertex="1">
                    <mxGeometry x="190" y="170" width="120" height="50" as="geometry"/>
                </mxCell>
                <mxCell id="497" value="" style="endArrow=open;endFill=1;endSize=12;html=1;exitX=0.25;exitY=1;exitDx=0;exitDy=0;entryX=0.5;entryY=0;entryDx=0;entryDy=0;" parent="415" source="418" target="426" edge="1">
                    <mxGeometry width="160" relative="1" as="geometry">
                        <mxPoint x="1325" y="155" as="sourcePoint"/>
                        <mxPoint x="175" y="140" as="targetPoint"/>
                        <Array as="points"/>
                    </mxGeometry>
                </mxCell>
                <mxCell id="498" value="" style="endArrow=open;endFill=1;endSize=12;html=1;entryX=0.5;entryY=0;entryDx=0;entryDy=0;exitX=0.75;exitY=1;exitDx=0;exitDy=0;" parent="415" source="418" target="495" edge="1">
                    <mxGeometry width="160" relative="1" as="geometry">
                        <mxPoint x="260" y="130" as="sourcePoint"/>
                        <mxPoint x="230" y="140" as="targetPoint"/>
                        <Array as="points"/>
                    </mxGeometry>
                </mxCell>
                <mxCell id="435" value="Taken Exam Aggregate" style="swimlane;" parent="1" vertex="1">
                    <mxGeometry x="5570" y="2964" width="400" height="250" as="geometry"/>
                </mxCell>
                <mxCell id="436" value="«entity»&lt;br&gt;«root»&lt;br&gt;TakenExam" style="html=1;" parent="435" vertex="1">
                    <mxGeometry x="45" y="70" width="110" height="50" as="geometry"/>
                </mxCell>
                <mxCell id="437" value="«calculated»&lt;br&gt;TakenExamGrade" style="html=1;" parent="435" vertex="1">
                    <mxGeometry x="240" y="70" width="110" height="50" as="geometry"/>
                </mxCell>
                <mxCell id="438" value="«entity»&lt;br&gt;AnsweredQuestion" style="html=1;" parent="435" vertex="1">
                    <mxGeometry x="40" y="170" width="120" height="50" as="geometry"/>
                </mxCell>
                <mxCell id="439" value="" style="endArrow=diamondThin;endFill=1;endSize=24;html=1;entryX=0.5;entryY=1;entryDx=0;entryDy=0;exitX=0.5;exitY=0;exitDx=0;exitDy=0;" parent="435" source="438" target="436" edge="1">
                    <mxGeometry width="160" relative="1" as="geometry">
                        <mxPoint x="-350" y="490" as="sourcePoint"/>
                        <mxPoint x="-350" y="420" as="targetPoint"/>
                    </mxGeometry>
                </mxCell>
                <mxCell id="440" value="" style="endArrow=open;endSize=12;dashed=1;html=1;entryX=0;entryY=0.5;entryDx=0;entryDy=0;exitX=1;exitY=0.5;exitDx=0;exitDy=0;" parent="435" source="436" target="437" edge="1">
                    <mxGeometry x="-0.125" y="40" width="160" relative="1" as="geometry">
                        <mxPoint x="110" y="200" as="sourcePoint"/>
                        <mxPoint x="110" y="250" as="targetPoint"/>
                        <mxPoint as="offset"/>
                    </mxGeometry>
                </mxCell>
                <mxCell id="441" value="Question Aggregate" style="swimlane;startSize=23;" parent="1" vertex="1">
                    <mxGeometry x="4100" y="3429" width="1250" height="485" as="geometry"/>
                </mxCell>
                <mxCell id="442" value="«entity»&lt;br&gt;«root»&lt;br&gt;Question" style="html=1;" parent="441" vertex="1">
                    <mxGeometry x="550" y="125" width="110" height="50" as="geometry"/>
                </mxCell>
                <mxCell id="445" value="«entity»&lt;br&gt;MatchingQuestion" style="html=1;" parent="441" vertex="1">
                    <mxGeometry x="30" y="291.75" width="110" height="50" as="geometry"/>
                </mxCell>
                <mxCell id="446" value="" style="endArrow=block;endSize=16;endFill=0;html=1;exitX=0.5;exitY=0;exitDx=0;exitDy=0;entryX=0;entryY=1;entryDx=0;entryDy=0;" parent="441" source="445" target="442" edge="1">
                    <mxGeometry x="0.125" y="30" width="160" relative="1" as="geometry">
                        <mxPoint x="380" y="311.75" as="sourcePoint"/>
                        <mxPoint x="170" y="121.75" as="targetPoint"/>
                        <mxPoint as="offset"/>
                    </mxGeometry>
                </mxCell>
                <mxCell id="450" value="«entity»&lt;br&gt;MultipleChoiceQuestion" style="html=1;" parent="441" vertex="1">
                    <mxGeometry x="205" y="291.75" width="140" height="50" as="geometry"/>
                </mxCell>
                <mxCell id="451" value="«entity»&lt;br&gt;ShortAnswerQuestion" style="html=1;" parent="441" vertex="1">
                    <mxGeometry x="427.5" y="291.75" width="130" height="50" as="geometry"/>
                </mxCell>
                <mxCell id="462" value="«entity»&lt;br&gt;NumericalQuestion" style="html=1;" parent="441" vertex="1">
                    <mxGeometry x="655" y="291.75" width="130" height="50" as="geometry"/>
                </mxCell>
                <mxCell id="465" value="«entity»&lt;br&gt;MissingWordQuestion" style="html=1;" parent="441" vertex="1">
                    <mxGeometry x="867.5" y="291.75" width="130" height="50" as="geometry"/>
                </mxCell>
                <mxCell id="467" value="«entity»&lt;br&gt;BooleanQuestion" style="html=1;" parent="441" vertex="1">
                    <mxGeometry x="1080" y="291.75" width="130" height="50" as="geometry"/>
                </mxCell>
                <mxCell id="468" value="«value object»&lt;br&gt;MissingWordOption" style="html=1;" parent="441" vertex="1">
                    <mxGeometry x="840" y="411.75" width="185" height="50" as="geometry"/>
                </mxCell>
                <mxCell id="469" value="" style="endArrow=diamondThin;endFill=1;endSize=24;html=1;entryX=0.5;entryY=1;entryDx=0;entryDy=0;exitX=0.5;exitY=0;exitDx=0;exitDy=0;" parent="441" source="468" target="465" edge="1">
                    <mxGeometry width="160" relative="1" as="geometry">
                        <mxPoint x="722.5" y="421.75" as="sourcePoint"/>
                        <mxPoint x="722.5" y="351.75" as="targetPoint"/>
                    </mxGeometry>
                </mxCell>
                <mxCell id="474" value="" style="endArrow=block;endSize=16;endFill=0;html=1;exitX=0.5;exitY=0;exitDx=0;exitDy=0;entryX=0.158;entryY=1.014;entryDx=0;entryDy=0;entryPerimeter=0;" parent="441" source="450" target="442" edge="1">
                    <mxGeometry x="0.125" y="30" width="160" relative="1" as="geometry">
                        <mxPoint x="95.00000000000091" y="301.75" as="sourcePoint"/>
                        <mxPoint x="590" y="184.75" as="targetPoint"/>
                        <mxPoint as="offset"/>
                        <Array as="points">
                            <mxPoint x="567" y="211.75"/>
                        </Array>
                    </mxGeometry>
                </mxCell>
                <mxCell id="475" value="" style="endArrow=block;endSize=16;endFill=0;html=1;exitX=0.5;exitY=0;exitDx=0;exitDy=0;entryX=0.412;entryY=1.002;entryDx=0;entryDy=0;entryPerimeter=0;" parent="441" source="451" target="442" edge="1">
                    <mxGeometry x="0.125" y="30" width="160" relative="1" as="geometry">
                        <mxPoint x="95" y="301.75" as="sourcePoint"/>
                        <mxPoint x="575" y="185" as="targetPoint"/>
                        <mxPoint as="offset"/>
                        <Array as="points">
                            <mxPoint x="595" y="211.75"/>
                        </Array>
                    </mxGeometry>
                </mxCell>
                <mxCell id="476" value="" style="endArrow=block;endSize=16;endFill=0;html=1;exitX=0.5;exitY=0;exitDx=0;exitDy=0;entryX=0.599;entryY=1.002;entryDx=0;entryDy=0;entryPerimeter=0;" parent="441" source="462" target="442" edge="1">
                    <mxGeometry x="0.125" y="30" width="160" relative="1" as="geometry">
                        <mxPoint x="140" y="301.75" as="sourcePoint"/>
                        <mxPoint x="640" y="184.75" as="targetPoint"/>
                        <mxPoint as="offset"/>
                        <Array as="points">
                            <mxPoint x="616" y="211.75"/>
                        </Array>
                    </mxGeometry>
                </mxCell>
                <mxCell id="477" value="" style="endArrow=block;endSize=16;endFill=0;html=1;exitX=0.5;exitY=0;exitDx=0;exitDy=0;entryX=0.867;entryY=1.015;entryDx=0;entryDy=0;entryPerimeter=0;" parent="441" source="465" target="442" edge="1">
                    <mxGeometry x="0.125" y="30" width="160" relative="1" as="geometry">
                        <mxPoint x="95" y="301.75" as="sourcePoint"/>
                        <mxPoint x="660" y="191.75" as="targetPoint"/>
                        <mxPoint as="offset"/>
                        <Array as="points">
                            <mxPoint x="720" y="251.75"/>
                            <mxPoint x="645" y="201.75"/>
                        </Array>
                    </mxGeometry>
                </mxCell>
                <mxCell id="478" value="" style="endArrow=block;endSize=16;endFill=0;html=1;exitX=0.5;exitY=0;exitDx=0;exitDy=0;entryX=1;entryY=1;entryDx=0;entryDy=0;" parent="441" source="467" target="442" edge="1">
                    <mxGeometry x="0.125" y="30" width="160" relative="1" as="geometry">
                        <mxPoint x="350" y="258.5" as="sourcePoint"/>
                        <mxPoint x="830" y="141.75" as="targetPoint"/>
                        <mxPoint as="offset"/>
                    </mxGeometry>
                </mxCell>
                <mxCell id="488" value="«enum»&lt;br&gt;QuestionType" style="html=1;" parent="441" vertex="1">
                    <mxGeometry x="317.5" y="125" width="110" height="50" as="geometry"/>
                </mxCell>
                <mxCell id="491" value="«enum»&lt;br&gt;ExamType" style="html=1;" parent="441" vertex="1">
                    <mxGeometry x="780" y="125" width="110" height="50" as="geometry"/>
                </mxCell>
                <mxCell id="499" value="" style="endArrow=open;endFill=1;endSize=12;html=1;exitX=0;exitY=0.5;exitDx=0;exitDy=0;entryX=1;entryY=0.5;entryDx=0;entryDy=0;" parent="441" source="442" target="488" edge="1">
                    <mxGeometry width="160" relative="1" as="geometry">
                        <mxPoint x="430" y="-330" as="sourcePoint"/>
                        <mxPoint x="510" y="110" as="targetPoint"/>
                        <Array as="points"/>
                    </mxGeometry>
                </mxCell>
                <mxCell id="500" value="" style="endArrow=open;endFill=1;endSize=12;html=1;entryX=0;entryY=0.5;entryDx=0;entryDy=0;exitX=1;exitY=0.5;exitDx=0;exitDy=0;" parent="441" source="442" target="491" edge="1">
                    <mxGeometry width="160" relative="1" as="geometry">
                        <mxPoint x="740" y="170" as="sourcePoint"/>
                        <mxPoint x="700" y="150" as="targetPoint"/>
                        <Array as="points"/>
                    </mxGeometry>
                </mxCell>
                <mxCell id="487" value="&quot;Exam&quot; é abstrato, AutomatedExam e AutomaticFormativeExam são uma extensão." style="rounded=1;whiteSpace=wrap;html=1;" parent="1" vertex="1">
                    <mxGeometry x="4440" y="2834" width="273" height="60" as="geometry"/>
                </mxCell>
                <mxCell id="501" value="" style="endArrow=open;endFill=1;endSize=12;html=1;entryX=0;entryY=0.5;entryDx=0;entryDy=0;exitX=1;exitY=0.75;exitDx=0;exitDy=0;" parent="1" source="83" target="5" edge="1">
                    <mxGeometry width="160" relative="1" as="geometry">
                        <mxPoint x="4340" y="1564" as="sourcePoint"/>
                        <mxPoint x="5010" y="1677.5" as="targetPoint"/>
                        <Array as="points">
                            <mxPoint x="4740" y="1980"/>
                        </Array>
                    </mxGeometry>
                </mxCell>
                <mxCell id="502" value="«service»&lt;br&gt;ClassScheduler" style="html=1;" parent="1" vertex="1">
                    <mxGeometry x="5510" y="1960" width="120" height="50" as="geometry"/>
                </mxCell>
                <mxCell id="503" value="«service»&lt;br&gt;MeetingManager" style="html=1;" parent="1" vertex="1">
                    <mxGeometry x="5690" y="1620" width="100" height="50" as="geometry"/>
                </mxCell>
                <mxCell id="508" value="" style="endArrow=open;endFill=1;endSize=12;html=1;entryX=0;entryY=0.5;entryDx=0;entryDy=0;exitX=1;exitY=0.5;exitDx=0;exitDy=0;" parent="1" source="35" target="5" edge="1">
                    <mxGeometry width="160" relative="1" as="geometry">
                        <mxPoint x="4340" y="1564" as="sourcePoint"/>
                        <mxPoint x="5010" y="1677.5" as="targetPoint"/>
                        <Array as="points"/>
                    </mxGeometry>
                </mxCell>
                <mxCell id="509" value="" style="group" parent="1" vertex="1" connectable="0">
                    <mxGeometry x="3730" y="2170" width="490" height="330" as="geometry"/>
                </mxCell>
                <mxCell id="512" value="PostItAggregate" style="swimlane;" parent="509" vertex="1">
                    <mxGeometry width="490.0000000000001" height="330" as="geometry"/>
                </mxCell>
                <mxCell id="35" value="«entity»&lt;br&gt;Postit" style="html=1;" parent="512" vertex="1">
                    <mxGeometry x="350" y="80" width="96.72" height="50" as="geometry"/>
                </mxCell>
                <mxCell id="37" value="«value object»&lt;br&gt;PostitTimestamp" style="html=1;" parent="512" vertex="1">
                    <mxGeometry x="89.99754716981133" y="60" width="117.9420754716981" height="50" as="geometry"/>
                </mxCell>
                <mxCell id="38" value="«value object»&lt;br&gt;PostitContent" style="html=1;" parent="512" vertex="1">
                    <mxGeometry x="344.80811320754714" y="220" width="107.10660377358491" height="50" as="geometry"/>
                </mxCell>
                <mxCell id="97" value="" style="endArrow=diamondThin;endFill=1;endSize=24;html=1;entryX=0.5;entryY=1;entryDx=0;entryDy=0;exitX=0.5;exitY=0;exitDx=0;exitDy=0;" parent="512" source="38" target="35" edge="1">
                    <mxGeometry width="160" relative="1" as="geometry">
                        <mxPoint x="240" y="270" as="sourcePoint"/>
                        <mxPoint x="345.2272727272728" y="204" as="targetPoint"/>
                    </mxGeometry>
                </mxCell>
                <mxCell id="96" value="" style="endArrow=diamondThin;endFill=1;endSize=24;html=1;entryX=0;entryY=0.25;entryDx=0;entryDy=0;exitX=1;exitY=0.5;exitDx=0;exitDy=0;" parent="512" source="37" target="35" edge="1">
                    <mxGeometry width="160" relative="1" as="geometry">
                        <mxPoint x="322.9545454545455" y="134" as="sourcePoint"/>
                        <mxPoint x="211.5909090909091" y="-246" as="targetPoint"/>
                    </mxGeometry>
                </mxCell>
                <mxCell id="42" value="«value object»&lt;br&gt;PostitPreviousContent" style="html=1;" parent="512" vertex="1">
                    <mxGeometry x="130.00037735849057" y="170" width="135.79471698113207" height="50" as="geometry"/>
                </mxCell>
                <mxCell id="168" value="" style="endArrow=diamondThin;endFill=1;endSize=24;html=1;exitX=1;exitY=0.5;exitDx=0;exitDy=0;entryX=0;entryY=0.5;entryDx=0;entryDy=0;" parent="512" source="42" target="35" edge="1">
                    <mxGeometry width="160" relative="1" as="geometry">
                        <mxPoint x="289.54545454545456" y="274" as="sourcePoint"/>
                        <mxPoint x="-33.40909090909091" y="189" as="targetPoint"/>
                    </mxGeometry>
                </mxCell>
                <mxCell id="166" value="" style="endArrow=open;endFill=1;endSize=12;html=1;exitX=0.5;exitY=0;exitDx=0;exitDy=0;entryX=0.5;entryY=1;entryDx=0;entryDy=0;" parent="1" source="35" target="28" edge="1">
                    <mxGeometry width="160" relative="1" as="geometry">
                        <mxPoint x="4240" y="2150" as="sourcePoint"/>
                        <mxPoint x="4310" y="2090" as="targetPoint"/>
                    </mxGeometry>
                </mxCell>
                <mxCell id="514" value="" style="group" parent="1" vertex="1" connectable="0">
                    <mxGeometry x="3900" y="2540" width="370" height="330" as="geometry"/>
                </mxCell>
                <mxCell id="515" value="LogAggregate" style="swimlane;" parent="514" vertex="1">
                    <mxGeometry width="370.00000000000006" height="330" as="geometry"/>
                </mxCell>
                <mxCell id="83" value="«value object»&lt;br&gt;BoardLog" style="html=1;" parent="515" vertex="1">
                    <mxGeometry x="230" y="150" width="105.64" height="50" as="geometry"/>
                </mxCell>
                <mxCell id="85" value="«value object»&lt;br&gt;BoardLogTimestamp" style="html=1;" parent="515" vertex="1">
                    <mxGeometry x="46.25" y="50" width="143.71031250000001" height="50" as="geometry"/>
                </mxCell>
                <mxCell id="86" value="«value object»&lt;br&gt;BoardComponent" style="html=1;" parent="515" vertex="1">
                    <mxGeometry x="34.690625" y="150" width="133.78968749999999" height="50" as="geometry"/>
                </mxCell>
                <mxCell id="87" value="«enum»&lt;br&gt;BoardOperationType" style="html=1;" parent="515" vertex="1">
                    <mxGeometry x="34.6861125" y="250" width="183.94920000000002" height="50" as="geometry"/>
                </mxCell>
                <mxCell id="90" value="" style="endArrow=diamondThin;endFill=1;endSize=24;html=1;exitX=1;exitY=1;exitDx=0;exitDy=0;entryX=0;entryY=0;entryDx=0;entryDy=0;" parent="515" source="85" target="83" edge="1">
                    <mxGeometry width="160" relative="1" as="geometry">
                        <mxPoint x="0.8245714285714297" y="-586" as="sourcePoint"/>
                        <mxPoint x="-56.987928571428576" y="-781" as="targetPoint"/>
                    </mxGeometry>
                </mxCell>
                <mxCell id="88" value="" style="endArrow=diamondThin;endFill=1;endSize=24;html=1;exitX=1;exitY=0.5;exitDx=0;exitDy=0;entryX=0;entryY=0.5;entryDx=0;entryDy=0;" parent="515" source="86" target="83" edge="1">
                    <mxGeometry width="160" relative="1" as="geometry">
                        <mxPoint x="0.8245714285714297" y="-586" as="sourcePoint"/>
                        <mxPoint x="64.41832142857143" y="-586" as="targetPoint"/>
                    </mxGeometry>
                </mxCell>
                <mxCell id="89" value="" style="endArrow=diamondThin;endFill=1;endSize=24;html=1;exitX=1;exitY=0;exitDx=0;exitDy=0;entryX=0;entryY=1;entryDx=0;entryDy=0;" parent="515" source="87" target="83" edge="1">
                    <mxGeometry width="160" relative="1" as="geometry">
                        <mxPoint x="0.8245714285714297" y="-586" as="sourcePoint"/>
                        <mxPoint x="64.41832142857143" y="-586" as="targetPoint"/>
                    </mxGeometry>
                </mxCell>
                <mxCell id="84" value="" style="endArrow=diamondThin;endFill=1;endSize=24;html=1;exitX=1;exitY=0.5;exitDx=0;exitDy=0;entryX=1;entryY=1;entryDx=0;entryDy=0;" parent="1" source="83" target="25" edge="1">
                    <mxGeometry width="160" relative="1" as="geometry">
                        <mxPoint x="4070" y="1759" as="sourcePoint"/>
                        <mxPoint x="4150" y="1749" as="targetPoint"/>
                        <Array as="points">
                            <mxPoint x="4470" y="2450"/>
                            <mxPoint x="4460" y="1900"/>
                        </Array>
                    </mxGeometry>
                </mxCell>
                <mxCell id="526" value="«service»&lt;br&gt;PostItManager" style="html=1;" vertex="1" parent="1">
                    <mxGeometry x="4520" y="2050" width="100" height="50" as="geometry"/>
                </mxCell>
                <mxCell id="527" value="" style="endArrow=open;endFill=1;endSize=12;html=1;exitX=0;exitY=0.5;exitDx=0;exitDy=0;entryX=1;entryY=0.75;entryDx=0;entryDy=0;" edge="1" parent="1" source="526" target="35">
                    <mxGeometry width="160" relative="1" as="geometry">
                        <mxPoint x="4186.72" y="2285" as="sourcePoint"/>
                        <mxPoint x="4350" y="2340" as="targetPoint"/>
                        <Array as="points"/>
                    </mxGeometry>
                </mxCell>
                <mxCell id="528" value="" style="endArrow=open;endFill=1;endSize=12;html=1;exitX=1;exitY=0;exitDx=0;exitDy=0;entryX=0.08;entryY=1.04;entryDx=0;entryDy=0;entryPerimeter=0;" edge="1" parent="1" source="526" target="5">
                    <mxGeometry width="160" relative="1" as="geometry">
                        <mxPoint x="4530" y="2085" as="sourcePoint"/>
                        <mxPoint x="4186.72" y="2297.5" as="targetPoint"/>
                        <Array as="points"/>
                    </mxGeometry>
                </mxCell>
            </root>
        </mxGraphModel>
    </diagram>
</mxfile>